# xmcd
#
# Track frame offsets: 
#        150
#        14874
#        32663
#        47006
#        62177
#        76578
#        91269
#        108132
#        125535
#        141226
#        155233
#        170620
#
# Disc length: 2471 seconds
#
# Revision: 0
# Processed by: cddbd v1.5.1PL2 Copyright (c) Steve Scherf et al.
# Submitted via: ExactAudioCopy v0.95b4
#
DISCID=9e09a50c
DTITLE=DOMNUL PROBLEMA - Periculos
DYEAR=2004
DGENRE=Dance
TTITLE0=Maria
TTITLE1=Ole
TTITLE2=Urme de dragoste
TTITLE3=Trenuletul Zanga
TTITLE4=Ador problemele
TTITLE5=Confuz
TTITLE6=Senorita
TTITLE7=Ringul de dans
TTITLE8=Nuda
TTITLE9=BAnu
TTITLE10=Fuga
TTITLE11=Maria (Oriental Remixx)
EXTD=
EXTT0=
EXTT1=
EXTT2=
EXTT3=
EXTT4=
EXTT5=
EXTT6=
EXTT7=
EXTT8=
EXTT9=
EXTT10=
EXTT11=
PLAYORDER=
